<svg viewBox="0 0 48 48" fill="currentColor" xmlns="http://www.w3.org/2000/svg">
<path fill-rule="evenodd" clip-rule="evenodd" d="M43.6834 15.5201C41.5971 15.5201 39.9059 12.9412 39.9059 9.76005C39.9059 6.57886 41.5971 4 43.6834 4C45.7696 4 47.4608 6.57886 47.4608 9.76005C47.4608 12.9412 45.7696 15.5201 43.6834 15.5201ZM42.4242 9.76005C41.7288 9.76005 41.1651 8.90043 41.1651 7.84003C41.1651 6.77964 41.7288 5.92002 42.4242 5.92002C43.1196 5.92002 43.6834 6.77964 43.6834 7.84003C43.6834 8.90043 43.1196 9.76005 42.4242 9.76005Z" />
<path fill-rule="evenodd" clip-rule="evenodd" d="M4.96473 15.5201C7.05095 15.5201 8.74216 12.9412 8.74216 9.76005C8.74216 6.57886 7.05095 4 4.96473 4C2.87852 4 1.18731 6.57886 1.18731 9.76005C1.18731 12.9412 2.87852 15.5201 4.96473 15.5201ZM6.22388 9.76005C6.91928 9.76005 7.48302 8.90043 7.48302 7.84003C7.48302 6.77964 6.91928 5.92002 6.22388 5.92002C5.52847 5.92002 4.96473 6.77964 4.96473 7.84003C4.96473 8.90043 5.52847 9.76005 6.22388 9.76005Z" />
<path d="M24.324 23.5346C23.5934 24.3761 22.5245 24.9068 21.3336 24.9068C19.7968 24.9068 18.463 24.0229 17.7974 22.728C17.583 23.3089 17.5499 23.969 17.7589 24.623L21.6295 36.7391C22.4774 39.393 26.1708 39.393 27.0186 36.7391L30.8893 24.623C31.0982 23.9689 31.0651 23.3089 30.8507 22.7279C30.1851 24.0229 28.8513 24.9068 27.3145 24.9068C26.1236 24.9068 25.0547 24.3761 24.324 23.5346Z" />
<path d="M23.3272 19.8401C23.3272 20.3998 22.4346 20.8535 21.3336 20.8535C20.2325 20.8535 19.3399 20.3998 19.3399 19.8401C19.3399 19.2805 20.2325 18.8268 21.3336 18.8268C22.4346 18.8268 23.3272 19.2805 23.3272 19.8401Z" />
<path d="M29.3081 19.8401C29.3081 20.3998 28.4156 20.8535 27.3145 20.8535C26.2134 20.8535 25.3209 20.3998 25.3209 19.8401C25.3209 19.2805 26.2134 18.8268 27.3145 18.8268C28.4156 18.8268 29.3081 19.2805 29.3081 19.8401Z" />
<path d="M11.6184 38.7931C12.4479 38.2416 11.9882 36.9293 11.0025 37.0349L2.53782 37.942C0.714036 38.1375 -0.449293 40.0161 0.165921 41.7723L0.275404 42.0849C0.890618 43.8411 2.96015 44.5494 4.49495 43.529L11.6184 38.7931Z" />
<path d="M6.53924 31.6647C7.46122 32.6019 7.46122 34.1216 6.53924 35.0588C5.61725 35.9961 4.12242 35.9961 3.20043 35.0588C2.27844 34.1216 2.27844 32.6019 3.20043 31.6647C4.12242 30.7274 5.61725 30.7274 6.53924 31.6647Z" />
<path d="M10.709 33.2449C11.2476 33.7924 11.2476 34.6801 10.709 35.2276C10.1704 35.7751 9.29719 35.7751 8.7586 35.2276C8.22001 34.6801 8.22001 33.7924 8.7586 33.2449C9.29719 32.6974 10.1704 32.6974 10.709 33.2449Z" />
<path d="M14.2185 35.3982C14.5873 35.7731 14.5873 36.381 14.2185 36.7559C13.8497 37.1308 13.2518 37.1308 12.883 36.7559C12.5142 36.381 12.5142 35.7731 12.883 35.3982C13.2518 35.0233 13.8497 35.0233 14.2185 35.3982Z" />
<path d="M36.3816 38.7931C35.5521 38.2416 36.0118 36.9293 36.9975 37.0349L45.4622 37.942C47.286 38.1375 48.4493 40.0161 47.8341 41.7723L47.7246 42.0849C47.1094 43.8411 45.0398 44.5494 43.505 43.529L36.3816 38.7931Z" />
<path d="M41.4608 31.6647C40.5388 32.6019 40.5388 34.1216 41.4608 35.0588C42.3827 35.9961 43.8776 35.9961 44.7996 35.0588C45.7215 34.1216 45.7215 32.6019 44.7996 31.6647C43.8776 30.7274 42.3827 30.7274 41.4608 31.6647Z" />
<path d="M37.291 33.2449C36.7524 33.7924 36.7524 34.6801 37.291 35.2276C37.8296 35.7751 38.7028 35.7751 39.2414 35.2276C39.78 34.6801 39.78 33.7924 39.2414 33.2449C38.7028 32.6974 37.8296 32.6974 37.291 33.2449Z" />
<path d="M33.7815 35.3982C33.4127 35.7731 33.4127 36.381 33.7815 36.7559C34.1503 37.1308 34.7482 37.1308 35.117 36.7559C35.4858 36.381 35.4858 35.7731 35.117 35.3982C34.7482 35.0233 34.1503 35.0233 33.7815 35.3982Z" />
</svg>
