<svg viewBox="0 0 40 40" fill="none" xmlns="http://www.w3.org/2000/svg">
    <path d="M20 40C31.0457 40 40 31.0457 40 20C40 8.9543 31.0457 0 20 0C8.9543 0 0 8.9543 0 20C0 31.0457 8.9543 40 20 40Z" fill="#FF6F61"/>
    <path fill-rule="evenodd" clip-rule="evenodd" d="M20.7684 4.58503L33.2534 11.7894C33.3916 11.8692 33.4389 12.0457 33.3592 12.1839L32.3938 13.8552C32.3141 13.9932 32.1375 14.0405 31.9993 13.9607L19.5144 6.75649C19.3762 6.67677 19.3288 6.50013 19.4085 6.36189L20.3739 4.69068C20.4536 4.55264 20.6302 4.5054 20.7684 4.58503ZM13.8153 16.6282L26.3002 23.8326C26.4384 23.9123 26.4858 24.0889 26.4061 24.227L25.4407 25.8984C25.361 26.0364 25.1844 26.0836 25.0462 26.0039L12.5613 18.7997C12.423 18.7199 12.3756 18.5433 12.4554 18.4051L13.4207 16.7339C13.5005 16.5958 13.6771 16.5486 13.8153 16.6282ZM12.1694 19.4635L24.6096 26.6458C24.7478 26.7256 24.7546 27.0193 24.5938 27.1053L19.0623 30.3197C18.9244 30.3999 18.7476 30.353 18.6673 30.2151C18.6364 30.1621 18.6233 30.1005 18.6297 30.0396L18.6953 29.4186C18.7051 29.3259 18.7591 29.2436 18.8403 29.1977L22.4469 27.1582C22.5858 27.0798 22.6346 26.9035 22.5558 26.7648C22.5305 26.72 22.4937 26.6828 22.4491 26.657L13.2583 21.3341C13.1203 21.2541 12.9435 21.3011 12.8636 21.4391C12.8381 21.483 12.8248 21.533 12.8248 21.5838L12.8252 22.2825C12.8251 22.3856 12.8801 22.4808 12.9693 22.5325L15.8706 24.2128C15.9145 24.2381 15.9509 24.2747 15.9762 24.3186L16.5737 25.3559C16.6533 25.494 16.6057 25.6707 16.4675 25.7501C16.4237 25.7754 16.374 25.7885 16.3233 25.7885L15.1308 25.7881C15.08 25.7881 15.0301 25.7747 14.9861 25.7493L13.2597 24.7494C13.1215 24.6693 12.9448 24.7163 12.8649 24.8544C12.8394 24.8983 12.826 24.9482 12.8261 24.9991L12.8264 26.0461C12.8265 26.2056 12.6972 26.3349 12.5377 26.3348C12.4868 26.3349 12.4369 26.3214 12.3928 26.2959L11.9482 26.0384C11.8591 25.9867 11.804 25.8915 11.8041 25.7885L11.8019 19.6973C11.8015 19.4702 12.0013 19.3664 12.1694 19.4635ZM12.4747 28.0486C12.4749 28.0486 12.475 28.0487 12.4752 28.0489C12.5646 28.1004 12.6195 28.1958 12.6196 28.299L12.6196 28.6495C12.6195 28.7528 12.6748 28.8483 12.7644 28.8999L15.4513 30.4466C15.5409 30.4982 15.5962 30.5936 15.5961 30.6968L15.5965 32.4163C15.5966 32.5196 15.5414 32.615 15.4519 32.6665L12.7015 34.1298C12.3587 34.3122 11.9329 34.1821 11.7505 33.8393C11.7007 33.7456 11.6727 33.6419 11.6687 33.5359L11.5893 31.4612C11.5893 31.3017 11.7185 31.1725 11.878 31.1725C11.9287 31.1725 11.9784 31.1859 12.0222 31.2111L13.0459 31.8003C13.1839 31.8797 13.3601 31.8325 13.4399 31.6948L13.7452 31.1677C13.8251 31.0297 13.7779 30.8529 13.6399 30.773L13.6392 30.7726L11.7342 29.6762C11.6447 29.6246 11.5895 29.5291 11.5894 29.4258L11.5889 28.038C11.589 27.8785 11.7182 27.7492 11.8777 27.7493C11.9282 27.7494 11.978 27.7627 12.0219 27.7879L12.4747 28.0486ZM17.0184 11.0802L29.5034 18.2846C29.6416 18.3644 29.6889 18.5409 29.6092 18.6791L27.0813 23.0567C27.0016 23.1948 26.825 23.242 26.6868 23.1623L14.2019 15.958C14.0637 15.8783 14.0163 15.7017 14.096 15.5634L16.6239 11.1859C16.7036 11.0478 16.8802 11.0006 17.0184 11.0802ZM19.0599 7.40099L31.6757 14.6847C31.7792 14.7444 31.815 14.876 31.7558 14.9786L30.4514 17.2379C30.3922 17.3404 30.2603 17.3752 30.1569 17.3154C30.0942 17.2793 30.0537 17.2145 30.0487 17.1428L29.8896 14.821C29.8815 14.7025 29.7786 14.6123 29.6596 14.6195C29.6312 14.6212 29.6035 14.6285 29.578 14.641L27.1391 15.8343C27.0324 15.8865 26.9029 15.8424 26.8497 15.7358C26.8369 15.7104 26.8295 15.6827 26.8275 15.6544L26.6418 12.9459C26.6337 12.8273 26.5307 12.7372 26.4118 12.7444C26.3834 12.7461 26.3556 12.7534 26.3302 12.7659L23.8914 13.9592C23.7847 14.0115 23.6551 13.9673 23.6019 13.8607C23.5892 13.8352 23.5817 13.8076 23.5797 13.7793L23.3941 11.0708C23.3859 10.9523 23.283 10.8621 23.164 10.8694C23.1356 10.871 23.1079 10.8783 23.0824 10.8908L20.6439 12.0843C20.5373 12.1365 20.4077 12.0924 20.3545 11.9858C20.3418 11.9603 20.3342 11.9327 20.3323 11.9044L20.1467 9.19587C20.1385 9.07744 20.0356 8.98719 19.9166 8.99444C19.8882 8.99614 19.8605 9.00343 19.835 9.01593L17.7446 10.039C17.638 10.0912 17.5084 10.0471 17.4552 9.94054C17.423 9.87606 17.4252 9.79995 17.461 9.73786L18.7654 7.47857C18.8246 7.37599 18.9565 7.34126 19.0599 7.40099Z" fill="white"/>
    <path d="M2.26563 4.53125C3.5169 4.53125 4.53125 3.5169 4.53125 2.26562C4.53125 1.01435 3.5169 0 2.26562 0C1.01435 0 0 1.01435 0 2.26562C0 3.5169 1.01435 4.53125 2.26563 4.53125Z" fill="#FF6F61"/>
</svg>
